<svg xmlns="http://www.w3.org/2000/svg" viewBox="0 0 1200 602"><defs><style>.cls-1{fill:#fff;}.cls-2{fill:#3297d6;}.cls-3{fill:#1d79bc;}.cls-4{fill:#fddd95;}.cls-5{fill:#9ebfc8;}.cls-6{fill:#fac747;}.cls-7{fill:#78a0b4;}.cls-8{font-size:79.01px;}.cls-10,.cls-11,.cls-12,.cls-17,.cls-18,.cls-8,.cls-9{fill:#1566ad;}.cls-8,.cls-9{font-family:MuseoSans-900, Museo Sans;font-weight:900;}.cls-9{font-size:68.87px;}.cls-10,.cls-11,.cls-12,.cls-17,.cls-18{font-size:25px;}.cls-10,.cls-12,.cls-13,.cls-18{font-family:MuseoSans-500, Museo Sans;font-weight:500;}.cls-10,.cls-11{letter-spacing:-0.02em;}.cls-11,.cls-14,.cls-15,.cls-17{font-family:MuseoSans-700, Museo Sans;font-weight:700;}.cls-12,.cls-15,.cls-17{letter-spacing:-0.02em;}.cls-15,.cls-16{text-decoration:underline;}.cls-18{letter-spacing:-0.02em;}</style></defs><title>Dual_F</title><g id="Layer_2" data-name="Layer 2"><g id="Background_Household_Est-B_Image" data-name="Background + Household + Est-B Image"><rect class="cls-1" width="1200" height="602"/><path class="cls-2" d="M729,124.29a35.23,35.23,0,0,1-16,25.54,18.2,18.2,0,0,0-2.71-15.15s-.25,4.47-1.78,6.78c-1.27,1.9-4,2.49-6.48,4.42,0-1.22,0-2.47,0-3.74,0-9.13-4.68-14.38-6.62-20.88s-.68-15-.68-15-17,9.82-18.61,29.58c-1-2.36-2.47-4.07-4.32-8.22-3.22-7.33-2.22-12.21-2.22-12.21s-6.09,8.51-6.06,16.25c0,5.06.75,12.21,5.09,18.91-8.94-5.88-14.88-16.14-13.84-31,.84-11.76,9.62-24,12.06-29.4,3.6-8,2.37-13.68,2.37-13.68s7.61,5.16,7.15,18.94c8-11.1,17.26-22.32,14.35-40a.16.16,0,0,1,0-.05c1-.22,24.83,12.08,21.22,42.55a77.14,77.14,0,0,1-2.48,11.17c.84-.66,1.66-1.28,2.47-1.87,7.23-5.36,8.24-15.25,8.24-15.25S731.05,108.92,729,124.29Z"/><path class="cls-3" d="M729,124.29a35.23,35.23,0,0,1-16,25.54,18.2,18.2,0,0,0-2.71-15.15s-.25,4.47-1.78,6.78c-1.27,1.9-4,2.49-6.48,4.42,0-1.22,0-2.47,0-3.74,0-9.13-4.68-14.38-6.62-20.88s-.68-15-.68-15c7.54-26-3.51-49.66-4-50.75a.16.16,0,0,1,0-.05c1-.22,24.83,12.08,21.22,42.55a77.14,77.14,0,0,1-2.48,11.17c.84-.66,1.66-1.28,2.47-1.87,7.23-5.36,8.24-15.25,8.24-15.25S731.05,108.92,729,124.29Z"/><path class="cls-4" d="M102.87,91.1a29.62,29.62,0,0,1-6.34,18.37A51.34,51.34,0,0,0,85.59,135H60.8a51.35,51.35,0,0,0-11-25.55A29.72,29.72,0,1,1,102.9,91.1Z"/><path class="cls-5" d="M85.59,135v9.13a12.25,12.25,0,0,1-12,12.29h-.56a12.3,12.3,0,0,1-12.26-12.32h0V135Z"/><path class="cls-6" d="M102.87,91.1a29.62,29.62,0,0,1-6.34,18.37A51.34,51.34,0,0,0,85.59,135H73.19V61.33A29.74,29.74,0,0,1,102.87,91.1Z"/><path class="cls-7" d="M85.59,135v9.13a12.25,12.25,0,0,1-12,12.29h-.47V135Z"/><text id="data-gas_est" class="cls-8" transform="translate(769.27 154.26)">999</text><text class="cls-9" transform="translate(743.97 130.94) scale(0.58 0.58)">$</text><text id="data-elec_est" class="cls-8" transform="translate(140.9 153.57)">999</text><text class="cls-9" transform="translate(115.14 130.26) scale(0.58 0.58)">$</text><text id="Elec_Details" class="cls-10" transform="translate(39.24 198.79)">Estimated Electricity bill based on<tspan x="0" y="28">a household using {{avg_kwh}}kWh/quarter on</tspan><tspan x="0" y="56">Origin Flexi for 12 months.* </tspan></text><text id="Elec_Details-2" data-name="Elec_Details" class="cls-11" transform="translate(304.13 153.19)">/Quarter</text><text id="Elec_Details-3" data-name="Elec_Details" class="cls-11" transform="translate(923.68 154.19)">/Quarter</text><text id="Gas_Details" class="cls-12" transform="translate(658.58 198.79)">Estimated Natural Gas bill based on a <tspan x="0" y="28">household using {{avg_mj}}MJ/quarter on </tspan><tspan x="0" y="56">Origin Flexi for 12 months.*</tspan></text><text id="Elec_Details-4" data-name="Elec_Details" class="cls-11" transform="translate(43.24 324.08)">On this Origin Flexi offer you get:<tspan class="cls-13"><tspan x="0" y="33">•</tspan><tspan class="cls-14" x="9.77" y="33"> </tspan><tspan class="cls-15" x="15.35" y="33" xml:space="preserve">{{elec_percent}}% LESS than the Electricity </tspan></tspan><tspan class="cls-16"><tspan x="16.05" y="61">Reference Price for 12 months.</tspan></tspan><tspan class="cls-13"><tspan x="0" y="89">• ${{elec_annual_est}} per annum estimated cost for </tspan><tspan x="16.05" y="117">an average household using </tspan><tspan x="16.05" y="145">{{avg_annual_kwh}}kWh/year with a flat rate tariff in </tspan><tspan x="16.05" y="173">the {{elec_distributor}} Distribution Zone in {{state}}. </tspan><tspan x="16.05" y="201">Your actual bill may vary depending on your usage.</tspan></tspan></text><text id="Gas_Details-2" data-name="Gas_Details" class="cls-17" transform="translate(662.58 324.08)">On this Origin Flexi offer you get:<tspan class="cls-13"><tspan x="0" y="33">• {{gas_percent}}% OFF Origin&apos;s natural gas </tspan><tspan x="16.05" y="61">usage and supply charges for 12 months.</tspan></tspan></text><text class="cls-18" transform="translate(1129.22 376.76) scale(0.58 0.58)">^^</text></g></g></svg>